#!OML:ASF I:\Random Stuff\random\construction\7_22_03\Session 2\subj1.ASF
:FULLY-SPECIFIED
:DEGREES
256
root -2.54554 17.7083 0.533755 -109.114 88.2939 -114.25
lowerback -3.42201 0.232685 1.32154
upperback -3.49589 0.375485 1.45879
thorax -1.67141 0.210332 0.761885
lowerneck -24.4343 -2.22674 -0.267759
upperneck 34.0556 -2.67007 0.167363
head 16.3245 -0.8702 -0.367274
rclavicle 4.69629e-015 -7.55382e-015
rhumerus -10.9699 27.0735 -81.9557
rradius 80.6311
rwrist -38.3488
rhand -26.5785 4.98758
rfingers 7.12502
rthumb -0.0130095 -24.9922
lclavicle 4.69629e-015 -7.55382e-015
lhumerus -33.5333 -0.848563 89.966
lradius 26.0508
lwrist 28.6966
lhand -20.2622 56.7545
lfingers 7.12502
lthumb 6.0867 86.647
rfemur -4.35736 24.0449 19.3896
rtibia 7.94466
rfoot -2.91548 -34.5223
rtoes -12.9468
lfemur -9.80695 -27.5248 -13.9068
ltibia 19.0956
lfoot -15.1149 27.9376
ltoes -29.6186
257
root -2.54686 17.7068 0.533496 -106.2 88.3402 -111.349
lowerback -3.3543 0.226063 1.2974
upperback -3.48935 0.368224 1.47695
thorax -1.70274 0.207099 0.793563
lowerneck -24.4132 -2.16846 -0.121457
upperneck 34.0725 -2.57698 -0.00821268
head 16.3211 -0.838857 -0.449574
rclavicle 1.71452e-015 1.43125e-014
rhumerus -11.1713 27.2333 -82.1173
rradius 80.7388
rwrist -38.2522
rhand -26.4335 4.84385
rfingers 7.12502
rthumb 0.127061 -25.1359
lclavicle 1.71452e-015 1.43125e-014
lhumerus -33.4494 -0.666385 89.8705
lradius 25.8791
lwrist 28.5464
lhand -20.377 56.7377
lfingers 7.12502
lthumb 5.97582 86.6334
rfemur -4.42508 24.1406 19.3616
rtibia 7.99369
rfoot -2.97713 -34.5575
rtoes -12.9017
lfemur -9.79305 -27.3849 -13.9157
ltibia 19.0512
lfoot -15.0628 27.8643
ltoes -29.5224
258
root -2.54696 17.7057 0.532176 -100.979 88.2577 -106.102
lowerback -3.25068 0.232728 1.4382
upperback -3.4802 0.377475 1.52852
thorax -1.75108 0.209206 0.767266
lowerneck -24.3634 -2.10157 -0.0104468
upperneck 34.0628 -2.48698 -0.103096
head 16.3005 -0.80165 -0.490715
rclavicle -3.2551e-015 9.93923e-015
rhumerus -11.3766 27.4885 -82.2611
rradius 80.8302
rwrist -38.1798
rhand -26.3591 4.8725
rfingers 7.12502
rthumb 0.198891 -25.1071
lclavicle -3.2551e-015 9.93923e-015
lhumerus -33.4218 -0.512584 89.7682
lradius 25.7615
lwrist 28.4405
lhand -20.5509 56.7202
lfingers 7.12502
lthumb 5.80794 86.6206
rfemur -4.56123 24.2833 19.5007
rtibia 8.2528
rfoot -3.19674 -34.6044
rtoes -12.7013
lfemur -9.68426 -27.4327 -13.7931
ltibia 18.9346
lfoot -15.0639 27.9802
ltoes -29.3139
259
root -2.54713 17.707 0.524999 -98.0135 88.3376 -103.195
lowerback -3.25101 0.234345 1.46758
upperback -3.49903 0.379737 1.51555
thorax -1.77007 0.209601 0.737512
lowerneck -24.3533 -2.02394 0.0518976
upperneck 34.162 -2.38829 -0.110602
head 16.3467 -0.750033 -0.4841
rclavicle -2.68359e-015 -9.14409e-015
rhumerus -11.594 27.8131 -82.3946
rradius 80.9037
rwrist -38.0147
rhand -26.5519 5.01513
rfingers 7.12502
rthumb 0.0127195 -24.9646
lclavicle -2.68359e-015 -9.14409e-015
lhumerus -33.4521 -0.437393 89.7156
lradius 25.7547
lwrist 28.3367
lhand -20.4901 56.7033
lfingers 7.12502
lthumb 5.86663 86.6021
rfemur -4.80876 24.3776 19.3675
rtibia 8.56098
rfoot -3.41734 -34.6367
rtoes -12.8532
lfemur -9.65236 -27.7085 -13.8614
ltibia 18.7941
lfoot -15.0811 28.3394
ltoes -29.1138
260
root -2.54658 17.7094 0.512286 -95.2832 88.6695 -100.58
lowerback -3.32584 0.249374 1.31322
upperback -3.54674 0.400483 1.40728
thorax -1.7773 0.221895 0.713506
lowerneck -24.2423 -1.98146 0.121936
upperneck 34.2204 -2.3071 -0.212476
head 16.3467 -0.719904 -0.522309
rclavicle -8.94531e-016 1.98785e-015
rhumerus -11.8606 28.0829 -82.5463
rradius 81.0052
rwrist -37.8587
rhand -26.6994 5.00342
rfingers 7.12502
rthumb -0.129711 -24.9763
lclavicle -8.94531e-016 1.98785e-015
lhumerus -33.5579 -0.550226 89.7532
lradius 25.8918
lwrist 28.3861
lhand -20.3814 56.7809
lfingers 7.12502
lthumb 5.97155 86.6768
rfemur -5.07455 24.4725 18.8899
rtibia 8.79532
rfoot -3.67261 -34.6546
rtoes -12.8106
lfemur -9.66533 -28.2969 -14.2257
ltibia 18.6713
lfoot -15.1464 29.0291
ltoes -28.7186
261
root -2.55228 17.7177 0.510214 -92.9831 88.8278 -98.4868
lowerback -3.39282 0.238983 1.19745
upperback -3.62551 0.390228 1.36329
thorax -1.82125 0.219387 0.733235
lowerneck -24.0952 -1.89503 0.355093
upperneck 34.1611 -2.20323 -0.400727
head 16.2753 -0.675558 -0.621049
rclavicle 3.72721e-016 -9.93923e-015
rhumerus -12.0733 28.3233 -82.6991
rradius 81.0948
rwrist -37.8176
rhand -26.7724 4.97049
rfingers 7.12502
rthumb -0.200253 -25.0092
lclavicle 3.72721e-016 -9.93923e-015
lhumerus -33.565 -0.659502 89.8004
lradius 25.9844
lwrist 28.5516
lhand -20.4889 56.9354
lfingers 7.12502
lthumb 5.86779 86.8341
rfemur -5.48049 24.5216 18.6019
rtibia 9.03809
rfoot -3.73633 -34.6518
rtoes -12.7299
lfemur -9.86626 -28.1046 -14.2761
ltibia 18.577
lfoot -15.084 28.9324
ltoes -28.6062
262
root -2.55055 17.718 0.510157 -86.538 88.7577 -92.05
lowerback -3.31439 0.269979 1.31347
upperback -3.63047 0.431344 1.37012
thorax -1.86981 0.237247 0.6755
lowerneck -24.0619 -1.81283 0.453056
upperneck 34.0947 -2.11276 -0.430547
head 16.2331 -0.631703 -0.63164
rclavicle -3.35449e-015 7.95139e-015
rhumerus -12.2748 28.5273 -82.8575
rradius 81.1745
rwrist -37.8131
rhand -26.9191 5.27307
rfingers 7.12502
rthumb -0.34196 -24.7064
lclavicle -3.35449e-015 7.95139e-015
lhumerus -33.5377 -0.76044 89.8379
lradius 26.0444
lwrist 28.669
lhand -20.5489 56.9703
lfingers 7.12502
lthumb 5.80987 86.8706
rfemur -5.6233 24.6582 18.6704
rtibia 9.22232
rfoot -3.64815 -34.6681
rtoes -12.9442
lfemur -9.80486 -28.1249 -14.2055
ltibia 18.568
lfoot -15.2774 29.0409
ltoes -28.1523
263
root -2.54232 17.7129 0.510704 -78.4623 88.5787 -83.8695
lowerback -3.10085 0.353861 1.57181
upperback -3.67081 0.54516 1.35405
thorax -2.02916 0.287374 0.514466
lowerneck -23.9519 -1.75052 0.615809
upperneck 34.0885 -2.07848 -0.448538
head 16.2016 -0.597207 -0.658812
rclavicle 2.5345e-015 3.97569e-015
rhumerus -12.6587 28.6016 -83.1365
rradius 81.2851
rwrist -37.75
rhand -27.1275 5.63246
rfingers 7.12502
rthumb -0.543274 -24.3466
lclavicle 2.5345e-015 3.97569e-015
lhumerus -33.6733 -1.0431 89.883
lradius 26.1668
lwrist 28.8417
lhand -20.561 57.0326
lfingers 7.12502
lthumb 5.79823 86.9333
rfemur -5.54094 24.8746 18.8868
rtibia 9.25495
rfoot -3.65392 -34.6882
rtoes -12.9309
lfemur -9.56997 -28.0955 -14.1321
ltibia 18.5945
lfoot -15.6521 29.1316
ltoes -27.3876
264
root -2.53172 17.7057 0.509452 -70.6661 88.3904 -75.9132
lowerback -3.0393 0.3943 1.67764
upperback -3.57058 0.595765 1.43301
thorax -1.96017 0.310872 0.536772
lowerneck -24.1468 -1.7873 0.312445
upperneck 34.3187 -2.11504 -0.144201
head 16.3726 -0.599951 -0.484031
rclavicle 5.96354e-015 7.95139e-016
rhumerus -12.7488 28.8127 -83.2297
rradius 81.3141
rwrist -37.5762
rhand -27.2028 5.80325
rfingers 7.12502
rthumb -0.615956 -24.1756
lclavicle 5.96354e-015 7.95139e-016
lhumerus -33.6579 -1.15795 89.9913
lradius 26.3399
lwrist 29.065
lhand -20.6811 57.2775
lfingers 7.12502
lthumb 5.68221 87.1814
rfemur -5.43663 25.1318 19.0953
rtibia 9.39791
rfoot -3.83633 -34.7001
rtoes -12.7934
lfemur -9.22473 -28.0443 -14.1381
ltibia 18.5927
lfoot -16.111 29.2017
ltoes -26.3222
265
root -2.53196 17.7094 0.506857 -64.463 88.4552 -69.8569
lowerback -3.14661 0.394312 1.53546
upperback -3.58674 0.596352 1.44228
thorax -1.91802 0.315053 0.62671
lowerneck -24.203 -1.75793 0.298421
upperneck 34.4004 -2.05438 -0.164065
head 16.4271 -0.57782 -0.478499
rclavicle -1.41634e-015 -7.15625e-015
rhumerus -12.7641 29.0052 -83.2711
rradius 81.2631
rwrist -37.3501
rhand -27.1225 5.92955
rfingers 7.12502
rthumb -0.53838 -24.0495
lclavicle -1.41634e-015 -7.15625e-015
lhumerus -33.702 -1.353 90.1357
lradius 26.6384
lwrist 29.307
lhand -20.618 57.5957
lfingers 7.12502
lthumb 5.74314 87.4979
rfemur -5.7536 25.2565 18.8763
rtibia 9.63416
rfoot -3.9988 -34.715
rtoes -12.6859
lfemur -9.30872 -28.0695 -14.2078
ltibia 18.5132
lfoot -16.2096 29.3177
ltoes -25.8342
